# xmcd
#
# Track frame offsets:
#	150
#	28125
#	38875
#	46410
#	58447
#	68940
#	87002
#	99417
#	116770
#	127187
#	140025
#	151317
#	166117
#	178610
#	197860
#	217790
#
# Disc length: 3036 seconds
#
# Revision: 0
# Processed by: cddbd v1.4PL0 Copyright (c) Steve Scherf et al.
# Submitted via: dBpowerAMP V4.0
#
DISCID=e90bda10
DTITLE=Hadjidakis Manos - Six folkore paintings - The accursed serpent
DYEAR=1900
DGENRE=Art
TTITLE0=Synnefiasmeni Kyriakh
TTITLE1=Arxontissa
TTITLE2=Psilh broxoula epiase
TTITLE3=H amaxa mes sth broxh
TTITLE4=Pame tsarka sto baxe tsifliki
TTITLE5=Nyxtws xwris feggari
TTITLE6=Eisagogi - Prologos
TTITLE7=Telalima - kaugas - telalima
TTITLE8=Serenata tou Nioniou
TTITLE9=Eisodos tou pasa
TTITLE10=Xoros tis moirasias
TTITLE11=Kato sto rema
TTITLE12=Xoros tou karagiozh
TTITLE13=xoroi klp
TTITLE14=Megalos xoros tou Karagiozh
TTITLE15=Telikos xoros - epilogos
EXTD=Six folkore paintings - The accursed serpent
EXTT0=
EXTT1=
EXTT2=
EXTT3=
EXTT4=
EXTT5=
EXTT6=
EXTT7=
EXTT8=
EXTT9=
EXTT10=
EXTT11=
EXTT12=
EXTT13=
EXTT14=
EXTT15=
PLAYORDER=
